{
	"asset":{
		"generator":"Khronos glTF Blender I/O v5.0.21",
		"version":"2.0"
	},
	"extensionsUsed":[
		"KHR_materials_clearcoat"
	],
	"scene":0,
	"scenes":[
		{
			"name":"Scene",
			"nodes":[
				0,
				1
			]
		}
	],
	"nodes":[
		{
			"mesh":0,
			"name":"obj_4_Haare - Mann - Mittelscheitel.stp.003",
			"scale":[
				11.720735549926758,
				11.720735549926758,
				11.720735549926758
			],
			"translation":[
				-15.764695167541504,
				772.3599853515625,
				-141.8822784423828
			]
		},
		{
			"mesh":1,
			"name":"defaultMaterial.002",
			"rotation":[
				-0.70710688829422,
				0,
				0,
				0.7071066498756409
			],
			"scale":[
				3,
				3.000000476837158,
				3.000000476837158
			],
			"translation":[
				-10.509797096252441,
				509.867431640625,
				-94.58817291259766
			]
		}
	],
	"materials":[
		{
			"doubleSided":true,
			"extensions":{
				"KHR_materials_clearcoat":{
					"clearcoatFactor":0.10000000149011612,
					"clearcoatRoughnessFactor":0.05000000074505806
				}
			},
			"name":"Cabelo2",
			"pbrMetallicRoughness":{
				"baseColorFactor":[
					0.0753960832953453,
					0.02518797293305397,
					0.007397202774882317,
					1
				],
				"metallicFactor":0.5
			}
		},
		{
			"doubleSided":true,
			"name":"CorDePele2",
			"normalTexture":{
				"index":0
			},
			"occlusionTexture":{
				"index":1
			},
			"pbrMetallicRoughness":{
				"baseColorTexture":{
					"index":2
				},
				"metallicRoughnessTexture":{
					"index":1
				}
			}
		}
	],
	"meshes":[
		{
			"name":"obj_4_Haare - Mann - Mittelscheitel.stp.003",
			"primitives":[
				{
					"attributes":{
						"POSITION":0,
						"NORMAL":1,
						"TEXCOORD_0":2
					},
					"indices":3,
					"material":0
				}
			]
		},
		{
			"name":"defaultMaterial.002",
			"primitives":[
				{
					"attributes":{
						"POSITION":4,
						"NORMAL":5,
						"TEXCOORD_0":6
					},
					"indices":7,
					"material":1
				}
			]
		}
	],
	"textures":[
		{
			"sampler":0,
			"source":0
		},
		{
			"sampler":0,
			"source":1
		},
		{
			"sampler":0,
			"source":2
		}
	],
	"images":[
		{
			"mimeType":"image/png",
			"name":"Lego_Head_normal",
			"uri":"Lego_Head_normal.png"
		},
		{
			"mimeType":"image/png",
			"name":"Lego_Head_metallicRoughness",
			"uri":"Lego_Head_metallicRoughness.png"
		},
		{
			"mimeType":"image/jpeg",
			"name":"face5",
			"uri":"face5.jpeg"
		}
	],
	"accessors":[
		{
			"bufferView":0,
			"componentType":5126,
			"count":13494,
			"max":[
				37.25164794921875,
				20.65410614013672,
				37.04248046875
			],
			"min":[
				-34.51025390625,
				-46.28376007080078,
				-35.61448669433594
			],
			"type":"VEC3"
		},
		{
			"bufferView":1,
			"componentType":5126,
			"count":13494,
			"type":"VEC3"
		},
		{
			"bufferView":2,
			"componentType":5126,
			"count":13494,
			"type":"VEC2"
		},
		{
			"bufferView":3,
			"componentType":5123,
			"count":66432,
			"type":"SCALAR"
		},
		{
			"bufferView":4,
			"componentType":5126,
			"count":1273,
			"max":[
				100,
				100,
				122.85863494873047
			],
			"min":[
				-100,
				-100,
				-97.8021011352539
			],
			"type":"VEC3"
		},
		{
			"bufferView":5,
			"componentType":5126,
			"count":1273,
			"type":"VEC3"
		},
		{
			"bufferView":6,
			"componentType":5126,
			"count":1273,
			"type":"VEC2"
		},
		{
			"bufferView":7,
			"componentType":5123,
			"count":5538,
			"type":"SCALAR"
		}
	],
	"bufferViews":[
		{
			"buffer":0,
			"byteLength":161928,
			"byteOffset":0,
			"target":34962
		},
		{
			"buffer":0,
			"byteLength":161928,
			"byteOffset":161928,
			"target":34962
		},
		{
			"buffer":0,
			"byteLength":107952,
			"byteOffset":323856,
			"target":34962
		},
		{
			"buffer":0,
			"byteLength":132864,
			"byteOffset":431808,
			"target":34963
		},
		{
			"buffer":0,
			"byteLength":15276,
			"byteOffset":564672,
			"target":34962
		},
		{
			"buffer":0,
			"byteLength":15276,
			"byteOffset":579948,
			"target":34962
		},
		{
			"buffer":0,
			"byteLength":10184,
			"byteOffset":595224,
			"target":34962
		},
		{
			"buffer":0,
			"byteLength":11076,
			"byteOffset":605408,
			"target":34963
		}
	],
	"samplers":[
		{
			"magFilter":9729,
			"minFilter":9987
		}
	],
	"buffers":[
		{
			"byteLength":616484,
			"uri":"Head.bin"
		}
	]
}
